<svg xmlns="http://www.w3.org/2000/svg" viewBox="233 256 558.24 456"><path d="m599 335 2.174.019C648.352 335.447 695.267 347.09 730 381q1.96 1.665 3.938 3.313c33.72 29.582 53.737 77.295 56.937 121.44 2.077 37.48-4.512 76.224-22.875 109.247l-2 3.7c-5.92 10.792-13.075 20.337-20.922 29.792a159 159 0 0 0-4.219 5.328L739 656h-2c-.264.598-.529 1.196-.8 1.813-2.16 3.937-5.77 6.365-9.2 9.187l-1.6 1.347c-8.967 7.533-18.12 14.038-28.4 19.653l-1.893 1.046c-39.893 21.788-83.658 21.277-127.827 21.157-5.477-.013-10.954-.014-16.431-.016-10.326-.006-20.653-.023-30.98-.043-11.775-.022-23.55-.033-35.326-.043q-36.27-.033-72.543-.101c1-3 1-3 2.875-4.125 1.682-.693 3.4-1.3 5.125-1.875 9.283-4.562 17.85-9.588 26-16l2.664-2.047C460.727 676.428 471.16 665.56 480 653c.76-1.076 1.519-2.153 2.3-3.262 5.874-8.615 10.296-17.813 14.563-27.308 1.643-3.511 3.392-6.968 5.137-10.43l2.571.007c47.056.213 47.056.213 94.107-.216a590 590 0 0 1 4.796-.062c26.065-.254 49.053-9.176 67.526-27.729 4.171-4.374 7.797-8.875 11-14l-1-2h3l.848-2.633c1.077-3.147 2.31-6.173 3.59-9.242 9.375-24.715 7.925-52.885-2.094-77.168-3.534-7.776-7.54-14.616-13.024-21.18C672 456 672 456 672 454l-3-1a190 190 0 0 1-3.52-3.488c-9.596-9.8-20.687-15.837-33.855-19.45l-2.136-.604c-14.968-3.73-31.287-2.56-46.572-2.476-23.99.126-47.94-.2-71.917-.982-1.268-3.804-1.131-7.364-1.114-11.327V412.1c0-2.808.009-5.616.016-8.424l.005-5.839q.006-7.686.024-15.373.014-7.842.02-15.685.016-15.39.049-30.779c29.67-.702 59.321-1.3 89-1" fill="#0068e6"/><path d="M492 256a121899 121899 0 0 1 .167 133.213q.021 22.18.064 44.363.043 22.792.051 45.586.005 14.042.042 28.085.023 9.655.017 19.31c-.002 3.703 0 7.405.017 11.108.201 48.322-11.417 89.271-43.835 125.929C447 665 447 665 445 665v2c-2.429 2.583-5.263 4.754-8 7l-2.758 2.297c-23.905 19.197-53.915 32.015-84.898 31.8-.788 0-1.576-.002-2.387-.004-2.486-.005-4.971-.018-7.457-.03l-5.094-.014q-6.202-.017-12.406-.049v-2l-1.66-.043C301.9 704.847 283.624 695.05 270 683l-1.875-1.48C248.392 665.795 236.043 637.389 233 613c3-1.5 6.073-1.121 9.361-1.098l2.303.005q2.484.006 4.968.018 3.959.019 7.917.024c6.572.013 13.143.037 19.714.061q8.293.03 16.585.046 3.85.01 7.7.032c11.18.034 22.296-.366 33.452-1.088l3.362-.216c2.22-.178 4.433-.464 6.638-.784l1-2 2-.375c14.002-2.917 26.744-13.052 35.004-24.371 6.877-10.947 10.02-22.498 11.12-35.249.083-.953.166-1.906.253-2.887.904-11.27.88-22.524.834-33.824l-.004-7.163q-.005-7.638-.026-15.278-.029-11.064-.035-22.128-.015-17.986-.05-35.974l-.004-2.164-.005-2.166a70899 70899 0 0 1-.1-68.543q-.012-12.01-.04-24.02-.016-7.47-.024-14.941-.005-3.451-.015-6.903c-.092-30.374-.092-30.374 2.998-34.655l2.594-1.609 3.023-1.879L407 272l1.911-1.03c19.821-10.481 39.858-14.154 62.089-14.595q2.397-.057 4.793-.117c5.403-.131 10.802-.258 16.207-.258" fill="#15a549"/><path d="M672 454h2a85 85 0 0 1 4.25 5.75l1.218 1.787c15.838 23.71 21.277 51.931 16.415 79.975-6.3 24.895-19.648 46.16-41.885 59.708-15.522 8.724-31.907 13.132-49.712 13.007h-3.374a2771 2771 0 0 1-10.924-.032l-7.62-.008q-8.967-.012-17.934-.043c-6.813-.022-13.625-.033-20.438-.043Q522.998 614.068 502 614l-.597 2.05-.797 2.705-.785 2.675c-1.143 3.579-2.666 6.861-4.384 10.195l-1.048 2.049C487.16 647.546 478.707 659.59 468 671l-1.736 1.853C455.079 684.666 438.918 701.696 422 704c2.808-2.238 5.75-4.036 8.872-5.802C450.36 687.064 467.104 671.32 480 653c.76-1.076 1.519-2.153 2.3-3.262 5.874-8.615 10.296-17.813 14.563-27.308 1.643-3.511 3.392-6.968 5.137-10.43l2.571.007c47.056.213 47.056.213 94.107-.216a590 590 0 0 1 4.796-.062c26.065-.254 49.053-9.176 67.526-27.729 4.171-4.374 7.797-8.875 11-14l-1-2h3l.848-2.633c1.077-3.147 2.31-6.173 3.59-9.242 9.375-24.715 7.925-52.885-2.094-77.168-3.534-7.776-7.54-14.616-13.024-21.18C672 456 672 456 672 454" fill="#084cb5"/><path d="M396 281h1c.784 31.04 1.163 62.06 1.167 93.108l.006 10.026q.013 17.59.012 35.18.001 16.255.026 32.511.019 14.122.018 28.246-.002 8.365.013 16.73.014 7.832.003 15.665-.003 2.844.007 5.688c.078 25.781-.75 53.82-19.252 73.846h-2l-.621 1.695C370.11 604.171 355.094 608.964 344 612l-2.124.593c-6.015 1.52-11.758 1.644-17.938 1.532l-2.913-.027A897 897 0 0 1 314 614c2.336-2.336 2.833-2.269 6-2.379l2.426-.101 2.574-.082q2.59-.112 5.18-.227l2.518-.107c4.145-.188 8.195-.508 12.302-1.104l1-2 2-.375c14.002-2.917 26.744-13.052 35.004-24.371 6.877-10.946 10.02-22.497 11.12-35.248l.253-2.887c.905-11.276.88-22.536.834-33.84l-.004-7.168q-.005-7.644-.026-15.289-.029-11.07-.035-22.138-.015-17.994-.05-35.987l-.004-2.165-.005-2.168a70872 70872 0 0 1-.1-68.58q-.012-12.018-.04-24.036-.016-7.472-.024-14.944-.005-3.454-.015-6.91-.014-4.728-.015-9.456l-.013-2.734c.006-6.28.462-12.46 1.12-18.704" fill="#117d2a"/><path d="m615.875 335.375 3.58.093A116.5 116.5 0 0 1 640 338v1H513v31c-.128 5.488-.267 10.956-.5 16.438l-.145 3.767q-.17 4.398-.355 8.795h-1c-1.308-13.109-1.113-26.217-1.062-39.375q.008-3.446.013-6.89.017-8.368.049-16.735c35.287-.863 70.582-1.644 105.875-.625" fill="#024ec1"/><path d="M511 400h1v25l9.704-.08c10.65-.083 21.298-.138 31.947-.18 6.449-.025 12.897-.06 19.346-.117q9.356-.08 18.712-.097 3.548-.014 7.096-.055c28.477-.314 50.36 6.196 71.593 25.736C672 452 672 452 672 454c-3.099-1.033-4.292-2.209-6.52-4.488-9.596-9.8-20.687-15.837-33.855-19.45l-2.136-.604c-14.968-3.73-31.287-2.56-46.572-2.476-23.99.126-47.94-.2-71.917-.982-1.046-3.138-1.042-5.05-.879-8.324l.147-3.115.17-3.248.158-3.284q.195-4.014.404-8.029" fill="#053196"/><path d="M417 704h5l-3 3 203 1v1c-11.214 1.014-22.332 1.137-33.582 1.114h-5.799q-7.808-.001-15.617-.013c-5.455-.006-10.911-.006-16.367-.008q-15.47-.005-30.938-.021-17.623-.015-35.246-.022-36.225-.016-72.451-.05c1-3 1-3 3.063-4.187L417 705z" fill="#032c89"/><path d="m492 256-1 111h-1V259h-39c2.881-2.881 5.846-2.354 9.71-2.414l2.318-.059c2.449-.06 4.898-.106 7.347-.152l4.93-.117c5.565-.131 11.128-.258 16.695-.258" fill="#189d3f"/><path d="M234 612h78l1 2-76 1c.81 9.042.81 9.042 2 18l-2-1a128 128 0 0 1-2.187-8.375l-.577-2.367c-1.363-5.877-1.363-5.877-.236-9.258" fill="#187d32"/><path d="M239 634c2.136 2.646 3.44 4.908 4.5 8.125 7.438 18.986 21.212 36.061 38.5 46.875l3.16 2.043c9.137 5.591 18.607 8.894 28.84 11.957v1c-17.788-.318-35.805-13.103-48-25l-2.75-2.625L261 674l-1.312-1.363c-9.29-10.173-18.88-24.832-20.688-38.637" fill="#106e22"/><path d="M641 339c6.803-.361 12.492.884 19 2.813l3.154.932C685.726 349.72 715.357 362.302 730 382c-3.73-1.633-6.719-4.044-9.875-6.562C696.428 357.004 669.995 346.777 641 340z" fill="#0647b5"/><path d="M510 336h48v1h-46l1 2c.098 1.984.13 3.97.133 5.957l.006 3.773-.014 4.082-.003 2.068c-.022 14.72-.5 29.414-1.122 44.12h-1c-1.308-13.11-1.112-26.216-1.062-39.375z" fill="#0542b3"/><path d="M623.242 425.387C641.856 429.257 659.155 437.62 672 452v2c-3.099-1.033-4.292-2.209-6.52-4.488-16.363-16.71-37.67-22.19-60.48-22.512 5.4-3.6 12.03-2.685 18.242-1.613" fill="#084bb6"/><path d="m492 256-1 8h-1v-5h-39c2.881-2.881 5.846-2.354 9.71-2.414l2.318-.059c2.449-.06 4.898-.106 7.347-.152l4.93-.117c5.565-.131 11.128-.258 16.695-.258" fill="#127c2c"/><path d="M417 704h5l-3 3 37 1v1l-44 1c1-3 1-3 3.063-4.187L417 705z" fill="#0d509e"/><path d="M453 655c0 3.544-.61 4.103-2.875 6.688l-1.617 1.886C447 665 447 665 445 665v2c-2 1.625-2 1.625-4 3l-2-1z" fill="#0f6f2c"/><path d="M265 677c3.941 1.668 6.79 4.227 10 7l-2 2q-2.004-1.966-4-3.937l-2.25-2.215C265 678 265 678 265 677" fill="#0f691e"/><path d="m379 588 1 3-3 1c-1.209 2-1.209 2-2 4l-2-2z" fill="#158633"/><path d="m416 711 3 1Z" fill="#227db3"/><path d="m296 701 3 1Z" fill="#29a657"/><path d="m625 608 3 1Z" fill="#0d72e0"/><path d="m637 336 3 1Z" fill="#0e6fdb"/><path d="m336 709 2 1Z" fill="#27a355"/><path d="m439 691 2 1Z" fill="#1f88bd"/><path d="m339 609 2 1Z" fill="#28af59"/><path d="m717 368 2 1Z" fill="#0f6fde"/><path d="m448 256 2 1Z" fill="#2dac5c"/></svg>
